<svg width="256" height="256" viewBox="0 0 256 256" fill="none" xmlns="http://www.w3.org/2000/svg">
<g clip-path="url(#clip0_12128_4414)">
<path d="M59.0312 213.081V213.316C59.6192 213.198 60.0896 213.198 60.6776 213.081H59.0312ZM149.225 187.681C135.584 194.031 122.061 199.322 109.008 203.438C122.061 199.44 135.584 194.266 149.108 187.916C151.695 186.74 154.164 185.446 156.633 184.153C154.164 185.329 151.695 186.505 149.225 187.681ZM195.674 160.987C196.733 160.281 197.791 159.576 198.732 158.87C200.731 157.459 202.612 156.048 204.494 154.519C201.672 156.636 198.732 158.87 195.674 160.987ZM214.607 146.17C216.606 144.641 218.487 142.878 220.251 141.231V140.996C218.487 142.76 216.606 144.524 214.607 146.17Z" fill="#ED1C24"/>
<path d="M220.252 150.992V240.716C220.252 245.89 216.019 250.006 210.844 250.006H68.5569C63.2652 250.006 59.1494 245.89 59.1494 240.716V220.019C85.9606 218.726 119.122 210.024 152.871 194.384C179.682 181.802 202.848 166.632 220.369 150.992H220.252Z" fill="#53B1FD"/>
<path d="M253.413 82.4357C252.708 81.0246 252.002 79.6135 250.944 78.4376C250.944 78.4376 250.944 78.32 250.826 78.2024C248.474 75.145 245.534 72.3227 241.771 70.3236C241.654 70.3236 241.654 70.206 241.536 70.0885C235.069 66.0903 226.602 63.6208 216.607 62.5625C229.542 64.5616 239.302 69.1477 244.829 76.4385C245.77 77.732 246.593 79.1431 247.298 80.5542C254.707 96.4293 243.535 118.89 220.252 140.997C218.488 142.761 216.607 144.525 214.607 146.171C212.726 147.935 210.727 149.699 208.61 151.228C207.317 152.404 205.906 153.462 204.494 154.52C202.613 156.049 200.731 157.46 198.732 158.871C197.792 159.577 196.733 160.282 195.675 160.988C194.146 162.046 192.618 163.105 191.089 164.163C189.56 165.221 187.914 166.28 186.268 167.338C183.445 169.219 180.505 171.101 177.566 172.747C174.743 174.511 171.804 176.157 168.746 177.804C164.866 179.92 160.75 182.037 156.634 184.154C154.165 185.447 151.695 186.741 149.108 187.917C135.585 194.267 122.062 199.441 109.009 203.439C103.6 204.968 98.308 206.496 93.1339 207.672C91.1348 208.143 89.0181 208.613 87.1366 209.083C86.4311 209.319 85.7255 209.436 85.1375 209.554C83.6088 209.907 82.1977 210.142 80.7866 210.377C77.7292 210.847 74.7894 211.435 71.9671 211.788C69.9681 212.141 68.0866 212.376 66.2051 212.494C64.3236 212.846 62.4421 212.964 60.6782 213.082H59.0319C31.2799 214.963 10.5836 208.731 3.76318 194.267C3.4104 193.561 3.05762 192.738 2.94003 192.032C2.94003 192.032 2.82244 191.915 2.82244 191.797C0.823354 185.682 1.29373 178.744 3.76318 171.336C1.41132 176.745 0.117796 181.919 0.000202765 186.858C-0.234983 190.739 0.235389 194.149 1.41132 197.442C1.64651 198.265 1.99928 198.97 2.35206 199.794C9.40764 214.963 30.5744 221.548 59.0319 220.02C85.8431 218.726 119.004 210.024 152.754 194.384C179.565 181.802 202.731 166.632 220.252 150.992C248.121 126.298 261.88 100.427 253.413 82.4357Z" fill="#1570EF"/>
<path d="M210.962 107.248H201.907V73.616C201.907 56.2122 195.087 36.8094 184.033 25.1677C172.979 13.526 157.104 6 139.818 6H139.701C122.297 6 106.539 13.526 95.4857 25.0501C84.4319 36.8094 77.6115 56.0946 77.6115 73.616V107.248H68.5569C63.2652 107.248 59.1494 111.363 59.1494 116.42V206.143C81.4921 204.262 108.068 197.206 135.467 185.565V169.102C131.704 167.455 129 163.692 129 159.224C129 153.226 133.821 148.405 139.818 148.405C145.815 148.405 150.637 153.226 150.637 159.224C150.637 163.692 147.932 167.455 144.169 169.102V181.919C144.169 181.919 145.227 181.449 145.815 181.214C176.742 166.867 202.613 148.876 220.487 131.001V116.42C220.487 111.363 216.254 107.248 211.08 107.248H210.962ZM179.565 107.248H99.8366V73.616C99.8366 62.0919 103.952 47.9807 111.596 39.8668C119.004 31.9881 129.235 27.4019 139.701 27.4019H139.818C150.284 27.4019 160.397 31.9881 167.805 39.7492C175.449 47.9807 179.565 62.0919 179.565 73.616V107.248Z" fill="#363F72"/>
</g>
<defs>
<clipPath id="clip0_12128_4414">
<rect width="256" height="244.006" fill="white" transform="translate(0 6)"/>
</clipPath>
</defs>
</svg>
