<svg width="20" height="19" viewBox="0 0 256 244" fill="none" xmlns="http://www.w3.org/2000/svg"><g clip-path="url(#clip0_12129_4442)"><path d="M59.0312 207.081V207.316C59.6192 207.198 60.0896 207.198 60.6776 207.081H59.0312ZM149.225 181.681C135.584 188.031 122.061 193.322 109.008 197.438C122.061 193.44 135.584 188.266 149.108 181.916C151.695 180.74 154.164 179.446 156.633 178.153C154.164 179.329 151.695 180.505 149.225 181.681ZM195.674 154.987C196.733 154.281 197.791 153.576 198.732 152.87C200.731 151.459 202.612 150.048 204.494 148.519C201.672 150.636 198.732 152.87 195.674 154.987ZM214.607 140.17C216.606 138.641 218.487 136.878 220.251 135.231V134.996C218.487 136.76 216.606 138.524 214.607 140.17Z" fill="#ED1C24" /><path d="M220.252 144.992V234.716C220.252 239.89 216.019 244.006 210.844 244.006H68.5569C63.2652 244.006 59.1494 239.89 59.1494 234.716V214.019C85.9606 212.726 119.122 204.024 152.871 188.384C179.682 175.802 202.848 160.632 220.369 144.992H220.252Z" fill="#53B1FD" /><path d="M253.413 76.4357C252.708 75.0246 252.002 73.6135 250.944 72.4376C250.944 72.4376 250.944 72.32 250.826 72.2024C248.474 69.145 245.534 66.3227 241.771 64.3236C241.654 64.3236 241.654 64.206 241.536 64.0885C235.069 60.0903 226.602 57.6208 216.607 56.5625C229.542 58.5616 239.302 63.1477 244.829 70.4385C245.77 71.732 246.593 73.1431 247.298 74.5542C254.707 90.4293 243.535 112.89 220.252 134.997C218.488 136.761 216.607 138.525 214.607 140.171C212.726 141.935 210.727 143.699 208.61 145.228C207.317 146.404 205.906 147.462 204.494 148.52C202.613 150.049 200.731 151.46 198.732 152.871C197.792 153.577 196.733 154.282 195.675 154.988C194.146 156.046 192.618 157.105 191.089 158.163C189.56 159.221 187.914 160.28 186.268 161.338C183.445 163.219 180.505 165.101 177.566 166.747C174.743 168.511 171.804 170.157 168.746 171.804C164.866 173.92 160.75 176.037 156.634 178.154C154.165 179.447 151.695 180.741 149.108 181.917C135.585 188.267 122.062 193.441 109.009 197.439C103.6 198.968 98.308 200.496 93.1339 201.672C91.1348 202.143 89.0181 202.613 87.1366 203.083C86.4311 203.319 85.7255 203.436 85.1375 203.554C83.6088 203.907 82.1977 204.142 80.7866 204.377C77.7292 204.847 74.7894 205.435 71.9671 205.788C69.9681 206.141 68.0866 206.376 66.2051 206.494C64.3236 206.846 62.4421 206.964 60.6782 207.082H59.0319C31.2799 208.963 10.5836 202.731 3.76318 188.267C3.4104 187.561 3.05762 186.738 2.94003 186.032C2.94003 186.032 2.82244 185.915 2.82244 185.797C0.823354 179.682 1.29373 172.744 3.76318 165.336C1.41132 170.745 0.117796 175.919 0.000202765 180.858C-0.234983 184.739 0.235389 188.149 1.41132 191.442C1.64651 192.265 1.99928 192.97 2.35206 193.794C9.40764 208.963 30.5744 215.548 59.0319 214.02C85.8431 212.726 119.004 204.024 152.754 188.384C179.565 175.802 202.731 160.632 220.252 144.992C248.121 120.298 261.88 94.4275 253.413 76.4357Z" fill="#1570EF" /><path d="M210.962 101.248H201.907V67.616C201.907 50.2122 195.087 30.8094 184.033 19.1677C172.979 7.52595 157.104 0 139.818 0H139.701C122.297 0 106.539 7.52595 95.4857 19.0501C84.4319 30.8094 77.6115 50.0946 77.6115 67.616V101.248H68.5569C63.2652 101.248 59.1494 105.363 59.1494 110.42V200.143C81.4921 198.262 108.068 191.206 135.467 179.565V163.102C131.704 161.455 129 157.692 129 153.224C129 147.226 133.821 142.405 139.818 142.405C145.815 142.405 150.637 147.226 150.637 153.224C150.637 157.692 147.932 161.455 144.169 163.102V175.919C144.169 175.919 145.227 175.449 145.815 175.214C176.742 160.867 202.613 142.876 220.487 125.001V110.42C220.487 105.363 216.254 101.248 211.08 101.248H210.962ZM179.565 101.248H99.8366V67.616C99.8366 56.0919 103.952 41.9807 111.596 33.8668C119.004 25.9881 129.235 21.4019 139.701 21.4019H139.818C150.284 21.4019 160.397 25.9881 167.805 33.7492C175.449 41.9807 179.565 56.0919 179.565 67.616V101.248Z" fill="#363F72" /></g><defs><clipPath id="clip0_12129_4442"><rect width="256" height="244.006" fill="white" /></clipPath></defs></svg>